# xmcd
#
# Track frame offsets:
#	150
#	11842
#	21711
#	30650
#	42343
#	53051
#	65496
#	77692
#	87502
#	99706
#	111783
#	124501
#	136237
#	149191
#	161520
#	172452
#	184683
#	196888
#	208264
#	219648
#	232699
#	245074
#	257352
#
# Disc length: 3579 seconds
# Revision: 2
# Processed by: cddbd v1.5.2PL0 Copyright (c) Steve Scherf et al.
# Submitted via: dBpowerAMP V12.0
#
DISCID=560df917
DTITLE=Hank Williams - Moanin' The Blues - Honky Tonkin'
DYEAR=1956
DGENRE=Country
TTITLE0=Low Down Blues
TTITLE1=Someday, You'll Call My Name
TTITLE2=Alone And Forsaken
TTITLE3=Weary Blues From Waitin'
TTITLE4=Moanin' The Blues
TTITLE5=I'm So Lonesome I Could Cry
TTITLE6=My Sweet Love Ain't Around
TTITLE7=Honky Tonk Blues
TTITLE8=Lovesick Blues
TTITLE9=The Blues Come Around
TTITLE10=I'm A Long Gone Daddy
TTITLE11=Long Gone Lonesome Blues
TTITLE12=Jambalaya (On The Bayou)
TTITLE13=I Won't Be Home No More
TTITLE14=I'll Never Get Out Of This World Alive
TTITLE15=Honky Tonkin'
TTITLE16=Howlin' At The Moon
TTITLE17=My Bucket's Got A Hole In It
TTITLE18=Baby, We're Really In Love
TTITLE19=Mind Your Own Business
TTITLE20=Rootie Tootie
TTITLE21=I Ain't Got Nothing But Time
TTITLE22=You Better Keep It On Your Mind
EXTD=
EXTT0=
EXTT1=
EXTT2=
EXTT3=
EXTT4=
EXTT5=
EXTT6=
EXTT7=
EXTT8=
EXTT9=
EXTT10=
EXTT11=
EXTT12=
EXTT13=
EXTT14=
EXTT15=
EXTT16=
EXTT17=
EXTT18=
EXTT19=
EXTT20=
EXTT21=
EXTT22=
PLAYORDER=
